<svg xmlns="http://www.w3.org/2000/svg" viewBox="0 0 280 40" fill="none">
  <defs>
    <linearGradient id="textGrad" x1="0%" y1="0%" x2="100%" y2="0%">
      <stop offset="0%" style="stop-color:#ffffff"/>
      <stop offset="100%" style="stop-color:#c8c8d0"/>
    </linearGradient>
    <linearGradient id="accentGrad" x1="0%" y1="0%" x2="100%" y2="100%">
      <stop offset="0%" style="stop-color:#2563eb"/>
      <stop offset="100%" style="stop-color:#3b82f6"/>
    </linearGradient>
  </defs>
  <!-- Infinity chain icon -->
  <path d="M8 26c-3.3 0-6-2.3-6-5.3s2.7-5.3 6-5.3c2.3 0 4.3 1.3 5.3 3.2C14.3 16.7 16.3 15.4 18.6 15.4c3.3 0 6 2.3 6 5.3s-2.7 5.3-6 5.3c-2.3 0-4.3-1.3-5.3-3.2C12.3 24.7 10.3 26 8 26z" stroke="url(#accentGrad)" stroke-width="1.5" fill="none" stroke-linecap="round" stroke-linejoin="round"/>
  <circle cx="8" cy="20.7" r="1.2" fill="#2563eb" opacity="0.6"/>
  <circle cx="18.6" cy="20.7" r="1.2" fill="#3b82f6" opacity="0.6"/>
  <!-- Text -->
  <text x="34" y="28" font-family="Inter, -apple-system, sans-serif" font-size="20" font-weight="700" letter-spacing="3" fill="url(#textGrad)">ONLY A TRADER</text>
</svg>
